<svg width="535" height="95" viewBox="0 0 535 95" fill="none" xmlns="http://www.w3.org/2000/svg">
<path d="M38.6436 30.405L24.3874 52.3901L35.242 50.0479C35.4562 50.4065 35.6704 50.765 35.8846 51.1235L2.00083 93.0345H0.771484L14.7064 65.8132L4.4665 68.0209C4.13821 67.5327 4.11027 67.4973 3.78198 67.0091L17.5981 45.4132L7.21855 47.6492C6.89026 47.1185 6.89724 47.1185 6.56895 46.5807L40.4317 4.69092H41.6751L27.9288 31.5584L37.9591 29.3932C38.2944 29.8814 38.3153 29.9168 38.6436 30.405Z" fill="black"/>
<path d="M83.7988 77.3815L95.4309 21.8423H105.433L93.8009 77.3815H83.7988Z" fill="black"/>
<path d="M105.593 61.3954C105.593 48.7114 116.262 37.9038 129.227 37.9038C141.674 37.9038 149.083 48.5613 145.082 61.6206H115.447C115.817 66.574 119.225 69.4261 123.967 69.4261C128.412 69.4261 132.191 67.3996 134.784 64.0223L142.712 67.7749C138.859 73.554 131.598 78.1322 123.448 78.1322C113.002 78.1322 105.593 71.6026 105.593 61.3954ZM117.003 53.8901H136.266C135.969 49.9873 132.858 46.61 128.264 46.61C123.745 46.61 119.299 49.3869 117.003 53.8901Z" fill="black"/>
<path d="M151.717 61.3954C151.717 48.7114 162.386 37.9038 175.351 37.9038C187.798 37.9038 195.207 48.5613 191.206 61.6206H161.571C161.941 66.574 165.349 69.4261 170.091 69.4261C174.536 69.4261 178.315 67.3996 180.908 64.0223L188.836 67.7749C184.983 73.554 177.722 78.1322 169.572 78.1322C159.126 78.1322 151.717 71.6026 151.717 61.3954ZM163.127 53.8901H182.39C182.093 49.9873 178.982 46.61 174.388 46.61C169.869 46.61 165.423 49.3869 163.127 53.8901Z" fill="black"/>
<path d="M208.125 67.9248L206.124 77.3815H196.122L207.754 21.8423H217.756L211.162 52.9893L226.721 38.6541H240.502L221.979 55.391L234.871 77.3815H223.313L214.422 62.2208L208.125 67.9248Z" fill="black"/>
<path d="M56.598 77.3815L62.8215 47.5855H55.1162L57.0425 38.6541H64.7478L65.1183 36.8529C67.2669 26.0452 72.3791 21.8423 83.6407 21.8423H88.1601L86.2338 30.7736H81.7884C77.6394 30.7736 76.0835 32.1245 75.1945 36.2525L74.7499 38.6541H84.6038L82.7516 47.5855H72.8236L66.6001 77.3815H56.598Z" fill="black"/>
<path d="M241.04 77.3816L248.968 39.6299H253.043L251.116 48.8614C254.524 42.4069 260.303 38.8794 266.675 38.8794C275.788 38.8794 281.122 46.2346 279.122 55.9164L274.677 77.3816H270.602L275.047 55.9915C276.677 47.9608 272.38 42.7821 265.49 42.7821C257.932 42.7821 251.19 48.3361 249.634 55.6913L245.115 77.3816H241.04Z" fill="black"/>
<path d="M504.475 66.4238L502.104 77.3815H498.029L509.661 21.8423H513.736L505.661 60.4195L529.221 39.6298H535L517.218 55.2409L530.629 77.3815H525.739L514.107 57.9428L504.475 66.4238Z" fill="black"/>
<path d="M470.428 77.3815L478.355 39.6298H482.43L480.43 49.0865C485.097 40.7556 491.173 38.2038 498.137 39.1045L497.248 43.1573C489.098 41.6563 480.8 47.2102 479.022 55.6912L474.503 77.3815H470.428Z" fill="black"/>
<path d="M425.225 62.2209C425.225 49.8371 435.893 38.8794 448.266 38.8794C457.824 38.8794 464.64 45.409 464.64 54.8657C464.64 67.1744 453.971 78.1321 441.598 78.1321C432.041 78.1321 425.225 71.6025 425.225 62.2209ZM429.3 62.0708C429.3 69.2008 434.264 74.2294 441.672 74.2294C451.749 74.2294 460.565 65.0729 460.565 54.9407C460.565 47.8858 455.601 42.7821 448.192 42.7821C438.116 42.7821 429.3 51.9386 429.3 62.0708Z" fill="black"/>
<path d="M369.709 77.3815L364.967 39.6299H369.042L373.191 76.1807L391.194 39.6299H398.529L401.567 76.1807L420.608 39.6299H424.905L404.753 77.3815H398.011L394.677 41.1309L376.451 77.3815H369.709Z" fill="black"/>
<path d="M334.108 43.4574L334.923 39.6297H343.592L346.63 25.3697L351.001 24.0938L347.667 39.6297H359.521L358.78 43.4574H346.926L342.406 64.9976C341.073 71.152 342.851 73.5537 348.926 73.5537H352.483L351.668 77.3814H348.556C340.11 77.3814 336.702 72.9532 338.406 64.4723L342.851 43.4574H334.108Z" fill="black"/>
<path d="M288.012 62.2209C288.012 49.8371 298.681 38.8794 311.054 38.8794C321.352 38.8794 328.761 47.6606 326.168 59.6691H292.161C292.087 60.4947 292.013 61.2452 292.013 62.0708C292.013 69.2759 297.051 74.3795 304.46 74.3795C310.905 74.3795 316.758 70.7769 320.315 65.3731L323.945 66.7991C319.722 73.6289 312.387 78.1321 304.385 78.1321C294.828 78.1321 288.012 71.6025 288.012 62.2209ZM293.05 56.0665H322.537C323.204 48.7113 318.24 42.7071 310.905 42.7071C302.904 42.7071 295.643 48.4862 293.05 56.0665Z" fill="black"/>
</svg>
